<svg xmlns="http://www.w3.org/2000/svg" version="1.1" xmlns:xlink="http://www.w3.org/1999/xlink" xmlns:svgjs="http://svgjs.dev/svgjs" width="494.11" height="204.42"><svg id="SvgjsSvg1017" data-name="Layer 1" xmlns="http://www.w3.org/2000/svg" viewBox="0 0 494.11 204.42">
  <defs>
    <style>
      .cls-1 {
        fill: #232323;
      }

      .cls-1, .cls-2 {
        stroke-width: 0px;
      }

      .cls-2 {
        fill: #ed2024;
      }
    </style>
  </defs>
  <g id="SvgjsG1016">
    <g id="SvgjsG1015">
      <path class="cls-1" d="m87.75,116.16l18.54-36.03h14.87l3.14,36.03h-10.42l-.47-6.18h-11.78l-3.04,6.18h-10.84Zm17.38-13.77h7.91l-.89-13.35h-.42l-6.6,13.35Z"></path>
      <path class="cls-1" d="m142.83,116.58c-3.35,0-5.99-.25-7.91-.76-1.92-.51-3.27-1.34-4.06-2.51-.79-1.17-1.18-2.71-1.18-4.63,0-1.12.1-2.43.31-3.93.21-1.5.51-3.16.89-4.97l4.14-19.64h10.84l-4.61,21.57c-.21,1.19-.39,2.16-.55,2.93-.16.77-.24,1.41-.24,1.94,0,.56.11.99.34,1.28.23.3.59.49,1.1.58.51.09,1.18.13,2.02.13.98,0,1.76-.07,2.36-.21.59-.14,1.06-.43,1.39-.86.33-.44.63-1.13.89-2.07.26-.94.57-2.18.92-3.72l4.56-21.57h10.79l-4.14,19.64c-.56,2.76-1.09,5.1-1.6,7.02-.51,1.92-1.13,3.53-1.86,4.82-.73,1.29-1.68,2.3-2.85,3.01-1.17.72-2.68,1.22-4.53,1.52-1.85.3-4.19.45-7.02.45Z"></path>
      <path class="cls-1" d="m170.27,116.16l5.92-27.75h-9.42l1.78-8.27h29.64l-1.78,8.27h-9.48l-5.92,27.75h-10.73Z"></path>
      <path class="cls-1" d="m210.17,116.58c-3.7,0-6.62-.25-8.74-.76-2.13-.51-3.63-1.35-4.5-2.54-.87-1.19-1.31-2.79-1.31-4.82,0-1.33.17-2.87.52-4.63.35-1.76.75-3.8,1.2-6.1.56-2.93,1.1-5.45,1.62-7.54.52-2.09,1.17-3.81,1.94-5.16.77-1.34,1.77-2.41,3.01-3.19,1.24-.79,2.84-1.34,4.82-1.65,1.97-.31,4.46-.47,7.46-.47,3.7,0,6.59.25,8.67.76,2.08.51,3.54,1.35,4.4,2.54.86,1.19,1.28,2.81,1.28,4.87,0,1.36-.14,2.91-.42,4.63-.28,1.73-.68,3.74-1.2,6.05-.63,2.97-1.23,5.5-1.81,7.59-.58,2.09-1.24,3.81-1.99,5.16-.75,1.34-1.73,2.4-2.93,3.17-1.2.77-2.77,1.31-4.69,1.62-1.92.31-4.36.47-7.33.47Zm.68-7.85c.98,0,1.79-.04,2.43-.13.65-.09,1.19-.3,1.62-.63.44-.33.82-.86,1.15-1.6.33-.73.65-1.77.97-3.12s.7-3.05,1.15-5.11c.45-2.02.79-3.69,1.02-5,.23-1.31.34-2.35.34-3.12s-.14-1.33-.42-1.68c-.28-.35-.72-.57-1.34-.65-.61-.09-1.44-.13-2.49-.13-.94,0-1.74.04-2.38.13-.65.09-1.2.3-1.65.63-.45.33-.83.86-1.13,1.6-.3.73-.61,1.77-.94,3.12-.33,1.34-.71,3.05-1.13,5.11-.31,1.4-.58,2.62-.79,3.67-.21,1.05-.38,1.94-.5,2.67-.12.73-.18,1.34-.18,1.83,0,.77.14,1.32.42,1.65.28.33.74.54,1.39.63.65.09,1.46.13,2.43.13Z"></path>
      <path class="cls-1" d="m245.25,116.58c-1.5,0-3.11-.04-4.82-.1-1.71-.07-3.35-.18-4.92-.34-1.57-.16-2.93-.3-4.08-.44l1.52-7.54c1.26.11,2.52.21,3.8.31,1.27.1,2.48.18,3.61.21,1.13.04,2.1.05,2.91.05,1.01,0,1.86-.02,2.54-.05.68-.03,1.24-.1,1.68-.18.44-.09.79-.2,1.07-.34.21-.07.38-.22.52-.44.14-.23.27-.47.39-.73.12-.26.23-.54.31-.84.09-.3.15-.61.18-.94.03-.33.05-.62.05-.86,0-.38-.08-.67-.24-.86-.16-.19-.54-.36-1.15-.5-.61-.14-1.56-.31-2.85-.52l-6.6-1.05c-1.61-.24-2.72-.86-3.35-1.83-.63-.98-.94-2.29-.94-3.93,0-.8.06-1.68.18-2.62.12-.94.31-1.9.55-2.88.49-2.27,1.2-4.08,2.12-5.45.92-1.36,2.06-2.41,3.4-3.14,1.34-.73,2.91-1.22,4.69-1.47s3.77-.37,5.97-.37c1.5,0,3.03.04,4.58.13,1.55.09,3,.21,4.35.37,1.34.16,2.47.34,3.38.55l-1.62,7.44c-.87-.1-1.91-.21-3.12-.31-1.2-.11-2.43-.18-3.69-.24-1.26-.05-2.44-.08-3.56-.08-.8,0-1.48.03-2.04.08-.56.05-1.03.12-1.41.21-.38.09-.72.22-1,.39-.25.17-.46.38-.65.63-.19.25-.34.52-.45.84-.1.31-.18.64-.24.97s-.08.67-.08,1.02c0,.49.2.82.6,1,.4.18,1.16.35,2.28.52l6.02.94c1.08.17,2.09.44,3.04.79.94.35,1.71.96,2.3,1.83.59.87.89,2.16.89,3.87,0,.42-.02.87-.05,1.36-.04.49-.1,1.02-.18,1.6-.09.58-.2,1.18-.34,1.81-.56,2.55-1.29,4.56-2.2,6.05-.91,1.48-2,2.59-3.27,3.32-1.27.73-2.74,1.21-4.4,1.44-1.66.23-3.55.34-5.68.34Z"></path>
      <path class="cls-1" d="m263.42,116.16l7.7-36.03h26.13l-1.73,7.85h-15.34l-1.26,6.13h12.83l-1.62,7.7h-12.88l-1.36,6.49h15.34l-1.68,7.85h-26.13Z"></path>
      <path class="cls-1" d="m294.89,116.16l7.7-36.03h17.65c2.65,0,4.7.26,6.15.79,1.45.52,2.48,1.3,3.09,2.33.61,1.03.92,2.35.92,3.95,0,.49-.03,1.01-.08,1.57-.05.56-.13,1.14-.24,1.75-.1.61-.24,1.28-.42,2.02-.25,1.19-.53,2.3-.86,3.33-.33,1.03-.72,1.95-1.18,2.77-.45.82-1.05,1.54-1.78,2.17-.73.63-1.68,1.17-2.83,1.62l2.3,13.72h-10.89l-1.41-12.46c-.18.04-.38.05-.6.05h-4.06l-2.67,12.41h-10.79Zm15.03-19.79h3.82c.94,0,1.71-.05,2.3-.16.59-.1,1.06-.3,1.41-.58.35-.28.63-.71.84-1.28.21-.58.42-1.32.63-2.23.07-.56.15-1.05.24-1.47.09-.42.13-.77.13-1.05,0-.45-.11-.81-.34-1.07-.23-.26-.6-.45-1.13-.55-.52-.1-1.26-.16-2.2-.16h-3.88l-1.83,8.54Z"></path>
      <path class="cls-1" d="m336.62,116.16l-2.57-36.03h10.79l1,24.45h.47l11.42-24.45h11l-17.96,36.03h-14.14Z"></path>
      <path class="cls-1" d="m364.48,116.16l7.7-36.03h10.79l-7.7,36.03h-10.79Z"></path>
      <path class="cls-1" d="m396.37,116.58c-3,0-5.48-.26-7.44-.79-1.96-.52-3.41-1.41-4.37-2.67-.96-1.26-1.44-2.97-1.44-5.13,0-1.29.12-2.75.37-4.37.24-1.62.59-3.45,1.05-5.47.73-3.14,1.44-5.79,2.12-7.96.68-2.16,1.44-3.93,2.28-5.29.84-1.36,1.9-2.43,3.19-3.19,1.29-.77,2.87-1.29,4.74-1.57,1.87-.28,4.14-.42,6.83-.42,1.12,0,2.28.03,3.48.1,1.2.07,2.36.18,3.46.34,1.1.16,2.05.32,2.85.5l-1.62,7.33c-1.29-.1-2.38-.19-3.27-.26-.89-.07-1.61-.11-2.17-.13-.56-.02-1.05-.03-1.47-.03-1.4,0-2.57.05-3.51.16-.94.1-1.72.33-2.33.68-.61.35-1.11.9-1.49,1.65-.38.75-.75,1.78-1.1,3.09-.35,1.31-.73,2.98-1.15,5-.35,1.71-.64,3.19-.86,4.45-.23,1.26-.34,2.2-.34,2.83,0,.94.2,1.65.6,2.12.4.47,1.06.79,1.99.94.93.16,2.17.24,3.74.24,1.05,0,2.26-.03,3.64-.1,1.38-.07,2.61-.17,3.69-.31l-1.62,7.49c-.8.1-1.77.23-2.91.37-1.13.14-2.3.24-3.48.31-1.19.07-2.34.1-3.46.1Z"></path>
      <path class="cls-1" d="m410.87,116.16l7.7-36.03h26.13l-1.73,7.85h-15.34l-1.26,6.13h12.83l-1.62,7.7h-12.88l-1.36,6.49h15.34l-1.68,7.85h-26.13Z"></path>
    </g>
    <g id="SvgjsG1014">
      <path class="cls-1" d="m167.6,144.69l4.02-18.82h8.86c1.37,0,2.42.15,3.16.45.74.3,1.26.73,1.56,1.29.3.56.45,1.23.45,2.01,0,.24-.01.49-.04.75-.03.26-.07.54-.12.83-.06.29-.12.59-.19.9-.15.69-.32,1.32-.53,1.87s-.46,1.04-.74,1.45c-.28.41-.63.76-1.05,1.05-.42.29-.94.53-1.56.71l1.48,7.5h-3.99l-1.12-7.03c-.16.02-.34.03-.53.03h-4.25l-1.5,7h-3.88Zm6.04-9.96h3.94c.75,0,1.34-.05,1.79-.16s.8-.27,1.07-.49.47-.52.6-.9c.14-.38.26-.83.37-1.34.07-.31.13-.59.16-.85.04-.26.05-.48.05-.68,0-.33-.08-.6-.25-.81-.16-.21-.44-.36-.82-.47-.38-.1-.92-.15-1.61-.15h-4.08l-1.23,5.85Z"></path>
      <path class="cls-1" d="m197.19,144.9c-1.92,0-3.41-.13-4.49-.38s-1.84-.69-2.3-1.31c-.46-.62-.68-1.49-.68-2.6,0-.67.09-1.45.26-2.34.17-.88.37-1.92.59-3.1.33-1.59.64-2.93.93-4.03.29-1.1.63-2.01,1.03-2.72.39-.71.92-1.27,1.57-1.68.66-.41,1.49-.69,2.5-.85,1.01-.15,2.27-.23,3.79-.23,1.9,0,3.38.12,4.46.37,1.08.25,1.84.68,2.28,1.31.45.63.67,1.51.67,2.64,0,.69-.07,1.47-.21,2.34-.14.87-.33,1.89-.59,3.08-.35,1.59-.67,2.94-.98,4.05s-.66,2.02-1.05,2.74-.91,1.26-1.56,1.65c-.65.39-1.47.67-2.46.83-.99.16-2.25.25-3.76.25Zm.19-3.09c.82,0,1.49-.02,2.02-.07.53-.05.97-.17,1.33-.38s.66-.55.9-1.01c.25-.47.47-1.1.68-1.92.21-.81.45-1.86.72-3.16.27-1.11.47-2.04.57-2.79.11-.75.16-1.37.16-1.86,0-.62-.11-1.06-.34-1.33-.23-.26-.61-.42-1.15-.48-.54-.06-1.25-.08-2.15-.08-.8,0-1.47.02-2.01.07-.54.05-.98.17-1.34.38-.36.21-.65.55-.89,1.01-.24.47-.47,1.1-.68,1.92-.22.81-.47,1.86-.74,3.16-.16.75-.3,1.42-.41,2.01s-.2,1.11-.26,1.54c-.06.44-.1.81-.1,1.12,0,.6.12,1.03.36,1.3.24.26.63.42,1.18.48.55.06,1.26.08,2.13.08Z"></path>
      <path class="cls-1" d="m212.05,144.69l4.02-18.82h13.27l-.63,3.09h-9.41l-.98,4.73h8.01l-.63,3.01h-8.04l-1.04,4.9h9.35l-.66,3.09h-13.27Z"></path>
      <path class="cls-1" d="m231.74,144.69l4.02-18.82h3.88l-3.31,15.59h8.21l-.71,3.23h-12.09Z"></path>
      <path class="cls-1" d="m266.51,144.9c-.78,0-1.62-.02-2.5-.05-.88-.04-1.75-.09-2.58-.16-.84-.07-1.59-.15-2.24-.22l.6-2.98c.66.05,1.34.11,2.07.16.72.05,1.41.1,2.06.12s1.22.04,1.7.04c.6,0,1.12,0,1.55-.03s.8-.06,1.12-.12c.32-.06.6-.15.83-.26.18-.09.34-.24.47-.44.13-.2.24-.42.34-.66s.18-.48.25-.74c.06-.26.11-.51.15-.77s.06-.47.06-.66c0-.27-.06-.47-.18-.6s-.35-.23-.68-.32c-.34-.08-.8-.16-1.38-.23l-4.19-.6c-1.09-.15-1.84-.49-2.24-1.03-.4-.54-.6-1.27-.6-2.2,0-.31.03-.67.08-1.09s.13-.85.22-1.29c.26-1.13.61-2.04,1.07-2.72.46-.68,1.02-1.2,1.68-1.55.67-.35,1.44-.58,2.31-.7.88-.12,1.86-.18,2.95-.18.78,0,1.59.02,2.41.05.82.04,1.59.1,2.31.18.72.08,1.34.17,1.85.26l-.66,2.93c-.47-.05-1.04-.11-1.7-.16-.66-.05-1.32-.1-2-.12-.67-.03-1.3-.04-1.89-.04s-1.08.01-1.5.04-.77.07-1.05.14-.53.16-.75.29c-.22.11-.41.28-.56.51-.15.23-.29.48-.4.75-.11.27-.18.55-.22.83s-.05.55-.05.81c0,.37.13.61.38.72s.73.22,1.42.31l3.99.55c.67.09,1.27.23,1.78.41.51.18.92.49,1.23.93.31.44.47,1.1.47,2,0,.2,0,.43-.01.68,0,.26-.04.53-.08.82-.05.29-.11.59-.18.9-.27,1.28-.64,2.28-1.11,3.02-.46.74-1.02,1.28-1.65,1.63-.64.35-1.37.57-2.19.67s-1.73.15-2.74.15Z"></path>
      <path class="cls-1" d="m277.64,144.69l10.7-18.82h5.17l2.68,18.82h-3.83l-.63-4.21h-7.69l-2.43,4.21h-3.97Zm7.91-7.22h5.91l-1.15-8.07h-.19l-4.57,8.07Z"></path>
      <path class="cls-1" d="m301.71,144.69l4.02-18.82h4.05l5.2,11.87h.22l2.54-11.87h3.72l-4.02,18.82h-3.69l-5.42-12.64h-.19l-2.71,12.64h-3.72Z"></path>
      <path class="cls-1" d="m324.77,144.69l4.02-18.82h6.15c1.99,0,3.54.12,4.66.36,1.12.24,1.91.66,2.37,1.27.46.61.68,1.48.68,2.61,0,.64-.07,1.4-.21,2.27s-.31,1.88-.53,3.01c-.35,1.55-.67,2.87-.97,3.97-.3,1.09-.65,1.99-1.05,2.69s-.93,1.24-1.57,1.61c-.65.37-1.48.64-2.5.79-1.02.16-2.31.23-3.86.23h-7.19Zm4.6-3.09h2.35c.95,0,1.73-.02,2.34-.06.61-.04,1.11-.16,1.5-.37s.72-.54.98-.98.51-1.06.72-1.85c.22-.78.46-1.8.71-3.06.22-1.02.39-1.88.51-2.58.12-.7.18-1.29.18-1.76s-.07-.87-.22-1.13c-.15-.26-.39-.46-.72-.59-.34-.13-.78-.2-1.31-.22s-1.21-.03-2.01-.03h-2.35l-2.68,12.64Z"></path>
      <path class="cls-1" d="m346.71,144.69l4.02-18.82h13.27l-.63,3.09h-9.41l-.98,4.73h8.01l-.63,3.01h-8.04l-1.04,4.9h9.35l-.66,3.09h-13.27Z"></path>
      <path class="cls-1" d="m366.4,144.69l4.02-18.82h8.86c1.37,0,2.42.15,3.16.45.74.3,1.26.73,1.56,1.29.3.56.45,1.23.45,2.01,0,.24-.01.49-.04.75-.03.26-.07.54-.12.83-.06.29-.12.59-.19.9-.15.69-.32,1.32-.53,1.87s-.46,1.04-.74,1.45c-.28.41-.63.76-1.05,1.05-.42.29-.94.53-1.56.71l1.48,7.5h-3.99l-1.12-7.03c-.16.02-.34.03-.53.03h-4.25l-1.5,7h-3.88Zm6.04-9.96h3.94c.75,0,1.34-.05,1.79-.16s.8-.27,1.07-.49.47-.52.6-.9c.14-.38.26-.83.37-1.34.07-.31.13-.59.16-.85.04-.26.05-.48.05-.68,0-.33-.08-.6-.25-.81-.16-.21-.44-.36-.82-.47-.38-.1-.92-.15-1.61-.15h-4.08l-1.23,5.85Z"></path>
      <path class="cls-1" d="m395.34,144.9c-.78,0-1.62-.02-2.5-.05-.88-.04-1.75-.09-2.58-.16-.84-.07-1.59-.15-2.24-.22l.6-2.98c.66.05,1.34.11,2.07.16.72.05,1.41.1,2.06.12s1.22.04,1.7.04c.6,0,1.12,0,1.55-.03s.8-.06,1.12-.12c.32-.06.6-.15.83-.26.18-.09.34-.24.47-.44.13-.2.24-.42.34-.66s.18-.48.25-.74c.06-.26.11-.51.15-.77s.06-.47.06-.66c0-.27-.06-.47-.18-.6s-.35-.23-.68-.32c-.34-.08-.8-.16-1.38-.23l-4.19-.6c-1.09-.15-1.84-.49-2.24-1.03-.4-.54-.6-1.27-.6-2.2,0-.31.03-.67.08-1.09s.13-.85.22-1.29c.26-1.13.61-2.04,1.07-2.72.46-.68,1.02-1.2,1.68-1.55.67-.35,1.44-.58,2.31-.7.88-.12,1.86-.18,2.95-.18.78,0,1.59.02,2.41.05.82.04,1.59.1,2.31.18.72.08,1.34.17,1.85.26l-.66,2.93c-.47-.05-1.04-.11-1.7-.16-.66-.05-1.32-.1-2-.12-.67-.03-1.3-.04-1.89-.04s-1.08.01-1.5.04-.77.07-1.05.14-.53.16-.75.29c-.22.11-.41.28-.56.51-.15.23-.29.48-.4.75-.11.27-.18.55-.22.83s-.05.55-.05.81c0,.37.13.61.38.72s.73.22,1.42.31l3.99.55c.67.09,1.27.23,1.78.41.51.18.92.49,1.23.93.31.44.47,1.1.47,2,0,.2,0,.43-.01.68,0,.26-.04.53-.08.82-.05.29-.11.59-.18.9-.27,1.28-.64,2.28-1.11,3.02-.46.74-1.02,1.28-1.65,1.63-.64.35-1.37.57-2.19.67s-1.73.15-2.74.15Z"></path>
    </g>
    <g id="SvgjsG1013">
      <path class="cls-2" d="m124.79,60.02l.54,4.36c6.19,2.13,12,5.41,16.99,9.6l2.52-1.86c-5.76-5.19-12.64-9.34-20.06-12.1Z"></path>
      <path class="cls-2" d="m83.72,69.62l12.56,1.19-5.95-5.28-6.51-5.79c-14.09,5.67-23.18,17.03-24.78,31.28l12.66.92c.74-9.03,5.01-16.83,12.03-22.32Z"></path>
      <path class="cls-2" d="m116.01,62.09l7.15,5.8-.51-4.36h0l-.52-4.44c-10.86-3.51-23.38-4.3-35.08-.53l6.27,5.68c7.31-2.77,15.19-3.28,22.69-2.15Z"></path>
      <path class="cls-2" d="m154.2,122.26c-3.1,5.23-7.7,9.48-13.4,12.42l-7.14-3.47.76,6.09h0s.81,6.5.81,6.5c10.03-3.61,17.82-10.16,22.34-18.55l-3.36-2.99Z"></path>
      <path class="cls-2" d="m104.62,136.32h.01s-2.79-10.4-2.79-10.4l-6.22,6.29-7.25,7.33c15.06,7.98,30.97,8.94,43.8,5.25l-.79-6.7c-8.14,1.85-17.49,1.48-26.77-1.77Z"></path>
      <path class="cls-2" d="m73.07,104.98l9.32-8.67-10.83-.56h0s-12.76-.66-12.76-.66c-.1,15.85,8.92,31.71,25.57,42.14l7.6-7.31c-9.73-6.64-16.16-15.52-18.89-24.94Z"></path>
    </g>
    <path id="SvgjsPath1012" class="cls-1" d="m139.98,149.5c-40.55,17.47-95.76-11.17-90.18-58.94,2.66-26.78,25.89-41.35,51.26-41.15,9.46.07,18.87,1.94,27.44,5.66-8.9-2.78-18.21-3.99-27.38-3.44-13.44.74-27.24,5.46-36.53,15.45-15.29,16.69-13.47,44.52.6,61.48,17.45,21.34,48.72,29.07,74.79,20.93h0Z"></path>
  </g>
</svg><style>@media (prefers-color-scheme: light) { :root { filter: none; } }
@media (prefers-color-scheme: dark) { :root { filter: none; } }
</style></svg>